<?xml version="1.0" standalone="no"?><!DOCTYPE svg PUBLIC "-//W3C//DTD SVG 1.1//EN" "http://www.w3.org/Graphics/SVG/1.1/DTD/svg11.dtd"><svg t="1707285907394" class="icon" viewBox="0 0 1024 1024" version="1.1" xmlns="http://www.w3.org/2000/svg" p-id="1510" xmlns:xlink="http://www.w3.org/1999/xlink" width="200" height="200"><path d="M250.496 340.8c-16.427 0-29.504 13.504-29.504 29.525v83.051c0 16.427 13.483 29.504 29.504 29.504 16.448 0 29.525-13.483 29.525-29.504v-83.05c0-16.449-13.077-29.526-29.525-29.526m94.87-47.637c-16.449 0-29.526 13.504-29.526 29.525v166.101c0 16.427 13.504 29.504 29.525 29.504a29.867 29.867 0 0 0 29.504-29.504V322.688c0.427-16.448-13.077-29.525-29.504-29.525m95.275-47.638c-16.427 0-29.525 13.504-29.525 29.526v261.376c0 16.426 13.504 29.504 29.525 29.504a29.867 29.867 0 0 0 29.504-29.504V275.05c0-16.022-13.077-29.526-29.504-29.526m94.848 47.638c-16.427 0-29.504 13.504-29.504 29.525v166.101c0 16.427 13.483 29.504 29.504 29.504 16.427 0 29.504-13.482 29.504-29.504V322.688c0-16.448-13.056-29.525-29.504-29.525m94.848 47.637c-16.427 0-29.504 13.504-29.504 29.525v83.051c0 16.427 13.483 29.504 29.504 29.504a29.867 29.867 0 0 0 29.525-29.504v-83.05c0.427-16.449-13.077-29.526-29.525-29.526" fill="#ffffff" p-id="1511"></path><path d="M371.499 619.883l-94.016 94.442v-95.701H124.459a22.677 22.677 0 0 1-22.763-22.763v-428.33a23.04 23.04 0 0 1 22.763-23.168h612.117c16.448 0 29.93 13.482 29.93 29.93v421.12c0 13.504-10.943 24.043-24.02 24.043H371.498v0.427z m454.869-24.448V174.72a89.43 89.43 0 0 0-89.365-89.387H124.864a82.581 82.581 0 0 0-82.197 82.198v427.498a82.304 82.304 0 0 0 82.197 82.198h93.61V783.04c0 16.853 13.91 30.784 30.763 30.784l13.078-0.427 134.058-134.912h346.539a82.773 82.773 0 0 0 83.456-83.05z" fill="#ffffff" p-id="1512"></path><path d="M862.208 414.997v196.886c0 57.344-40.896 102.869-98.219 102.869H484.053c0 71.253 45.12 118.87 128.171 118.87h71.253l81.344 82.645c9.707 9.685 26.134 4.202 26.134-9.28v-73.771h7.168c112.576 0 182.976-67.03 182.976-177.493V519.552c-0.427-60.693-35.84-104.533-118.891-104.533" fill="#ffffff" p-id="1513"></path></svg>