<?xml version="1.0" standalone="no"?><!DOCTYPE svg PUBLIC "-//W3C//DTD SVG 1.1//EN" "http://www.w3.org/Graphics/SVG/1.1/DTD/svg11.dtd"><svg t="1707293426216" class="icon" viewBox="0 0 1024 1024" version="1.1" xmlns="http://www.w3.org/2000/svg" p-id="22703" xmlns:xlink="http://www.w3.org/1999/xlink" width="200" height="200"><path d="M928 128H96a53.393333 53.393333 0 0 0-53.333333 53.333333v661.333334a53.393333 53.393333 0 0 0 53.333333 53.333333h832a53.393333 53.393333 0 0 0 53.333333-53.333333V181.333333a53.393333 53.393333 0 0 0-53.333333-53.333333zM377.753333 591.086667L200.833333 768H320a21.333333 21.333333 0 0 1 0 42.666667H149.206667a21.333333 21.333333 0 0 1-21.206667-21.206667V618.666667a21.333333 21.333333 0 0 1 42.666667 0v119.166666l176.913333-176.92a21.333333 21.333333 0 0 1 30.173333 30.173334zM896 405.333333a21.333333 21.333333 0 0 1-42.666667 0V286.166667l-176.913333 176.92a21.333333 21.333333 0 0 1-30.173333-30.173334L823.166667 256H704a21.333333 21.333333 0 0 1 0-42.666667h170.793333a21.333333 21.333333 0 0 1 21.206667 21.206667V405.333333z" fill="#31DA9F" p-id="22704" data-spm-anchor-id="a313x.search_index.0.i17.55e73a81IBWcZH" class=""></path></svg>