<?xml version="1.0" standalone="no"?><!DOCTYPE svg PUBLIC "-//W3C//DTD SVG 1.1//EN" "http://www.w3.org/Graphics/SVG/1.1/DTD/svg11.dtd"><svg t="1707293460223" class="icon" viewBox="0 0 1024 1024" version="1.1" xmlns="http://www.w3.org/2000/svg" p-id="24604" xmlns:xlink="http://www.w3.org/1999/xlink" width="200" height="200"><path d="M928 128H96a53.393333 53.393333 0 0 0-53.333333 53.333333v661.333334a53.393333 53.393333 0 0 0 53.333333 53.333333h832a53.393333 53.393333 0 0 0 53.333333-53.333333V181.333333a53.393333 53.393333 0 0 0-53.333333-53.333333z m-544 618.666667a21.333333 21.333333 0 0 1-42.666667 0V627.5l-176.913333 176.92a21.333333 21.333333 0 0 1-30.173333-30.173333L311.166667 597.333333H192a21.333333 21.333333 0 0 1 0-42.666666h170.766667A21.333333 21.333333 0 0 1 384 575.9z m505.753333-496.913334L712.833333 426.666667H832a21.333333 21.333333 0 0 1 0 42.666666H661.233333A21.333333 21.333333 0 0 1 640 448.1V277.333333a21.333333 21.333333 0 0 1 42.666667 0v119.166667l176.913333-176.92a21.333333 21.333333 0 1 1 30.173333 30.173333z" fill="#31DA9F" p-id="24605"></path></svg>